<svg xmlns="http://www.w3.org/2000/svg" viewBox="0 0 500 500" id="bear-hug-heart">
  <circle cx="323.986" cy="61.359" r="41.845" fill="#bc6f44"></circle>
  <circle cx="175.898" cy="61.359" r="41.845" fill="#bc6f44"></circle>
  <path fill="#d19269" d="M350.59 146.055c0 49.141-45.339 114.234-100.647 114.234S150.3 195.2 150.3 146.055s44.835-88.979 100.143-88.979S350.59 96.913 350.59 146.055Z"></path>
  <path fill="#bc6f44" d="M309.1 179.712c0 23.6-26.554 54.854-58.946 54.854S191.8 203.309 191.8 179.712s26.259-42.726 58.651-42.726 58.649 19.129 58.649 42.726Z"></path>
  <path fill="#684734" d="M274.1 139.393c0 11.623-10.605 27.076-23.687 27.076s-23.688-15.453-23.688-27.076 10.606-16.318 23.688-16.318 23.687 4.694 23.687 16.318Z"></path>
  <path fill="#f04c6b" d="M254.225 461.219a10.867 10.867 0 0 1-8.563 0C84.944 391.794 96.54 281.493 96.54 281.493c6.217-86.637 89.2-119.883 145.529-57.258a10.722 10.722 0 0 0 15.748 0c56.356-62.689 139.377-29.244 145.53 57.259 0-.001 11.596 110.3-149.122 179.725Z"></path>
  <path fill="#d19269" d="M382.176 400.278c10.225 38.16-6.388 71.269-35.719 79.128s-60.271-12.508-70.5-50.668 6.964-69.118 36.294-76.977 59.7 10.357 69.925 48.517Z"></path>
  <ellipse cx="333.431" cy="430.789" fill="#bc6f44" rx="23.093" ry="27.472" transform="rotate(-15 333.43 430.789)"></ellipse>
  <path fill="#d19269" d="M118.718 400.278c-10.225 38.16 6.388 71.269 35.719 79.128s60.271-12.508 70.5-50.668-6.964-69.118-36.294-76.977-59.7 10.357-69.925 48.517Z"></path>
  <ellipse cx="167.463" cy="430.789" fill="#bc6f44" rx="27.472" ry="23.093" transform="rotate(-75 167.463 430.79)"></ellipse>
  <path fill="#d19269" d="M317.442 236.567c32.111-32.112 67.809-41.413 84.09-25.132s6.98 51.979-25.132 84.091-53.508 27.112-69.789 10.83-21.281-37.677 10.831-69.789zm-134.884 0c-32.111-32.112-67.809-41.413-84.09-25.132s-6.98 51.979 25.132 84.091 53.508 27.112 69.789 10.83 21.281-37.677-10.831-69.789z"></path>
  <circle cx="212.037" cy="106.173" r="6.211" fill="#684734"></circle>
  <circle cx="288.857" cy="106.173" r="6.211" fill="#684734"></circle>
  <circle cx="340.704" cy="380.783" r="6.211" fill="#bc6f44"></circle>
  <circle cx="300.774" cy="391.482" r="6.211" fill="#bc6f44"></circle>
  <circle cx="317.752" cy="372.275" r="6.211" fill="#bc6f44"></circle>
  <circle cx="160.19" cy="380.783" r="6.211" fill="#bc6f44"></circle>
  <circle cx="200.119" cy="391.482" r="6.211" fill="#bc6f44"></circle>
  <circle cx="183.142" cy="372.275" r="6.211" fill="#bc6f44"></circle>
</svg>