<svg xmlns="http://www.w3.org/2000/svg" fill="none" viewBox="0 0 96 96" id="Database">
  <path fill="url(#a)" fill-rule="evenodd" d="M14.7904 21.964C13.1758 23.6472 12.5 25.2622 12.5 26.7553C12.5 30.0594 15.5373 33.9902 22.2259 37.2524C28.7033 40.4116 37.8163 42.5 48 42.5C58.1837 42.5 67.2967 40.4116 73.7741 37.2524C80.4627 33.9902 83.5 30.0594 83.5 26.7553C83.5 25.2622 82.8242 23.6472 81.2096 21.964C79.5831 20.2684 77.11 18.6274 73.8614 17.195C67.3711 14.3332 58.2297 12.5 48 12.5C37.7703 12.5 28.6289 14.3332 22.1386 17.195C18.89 18.6274 16.4169 20.2684 14.7904 21.964ZM20.1213 12.62C27.3843 9.41757 37.2429 7.5 48 7.5C58.7571 7.5 68.6157 9.41757 75.8787 12.62C79.5067 14.2197 82.5986 16.1892 84.8179 18.5028C87.0491 20.8288 88.5 23.6215 88.5 26.7553C88.5 26.8371 88.4991 26.9186 88.4973 27H88.5V49V70.25C88.5 73.3004 86.9979 75.9767 84.7635 78.1662C82.5376 80.3475 79.4456 82.1967 75.8273 83.6964C68.5794 86.7005 58.7395 88.5 48 88.5C37.2605 88.5 27.4206 86.7005 20.1727 83.6964C16.5544 82.1967 13.4624 80.3475 11.2365 78.1662C9.00209 75.9767 7.5 73.3004 7.5 70.25V49V27H7.50271C7.50091 26.9186 7.5 26.8371 7.5 26.7553C7.5 23.6216 8.95085 20.8288 11.1821 18.5028C13.4014 16.1892 16.4933 14.2197 20.1213 12.62ZM12.5 36.7463V49C12.5 52.4421 15.536 56.3119 22.2002 59.4686C28.6736 62.535 37.7924 64.5 48 64.5C58.2076 64.5 67.3264 62.535 73.7998 59.4686C80.464 56.3119 83.5 52.4421 83.5 49V36.7463C81.4207 38.6729 78.8239 40.3525 75.966 41.7464C68.6901 45.295 58.8031 47.5 48 47.5C37.1969 47.5 27.3099 45.295 20.034 41.7464C17.1761 40.3525 14.5793 38.6729 12.5 36.7463ZM83.5 59.0632C81.416 60.9772 78.8108 62.6275 75.9403 63.9873C68.6605 67.4356 58.7793 69.5 48 69.5C37.2207 69.5 27.3395 67.4356 20.0597 63.9873C17.1892 62.6275 14.584 60.9772 12.5 59.0632V70.25C12.5 71.5489 13.1246 73.0159 14.736 74.595C16.3558 76.1823 18.8288 77.7269 22.0872 79.0774C28.5926 81.7738 37.7527 83.5 48 83.5C58.2473 83.5 67.4075 81.7738 73.9128 79.0774C77.1712 77.7269 79.6442 76.1823 81.264 74.595C82.8755 73.0159 83.5 71.5489 83.5 70.25V59.0632Z" clip-rule="evenodd"></path>
  <defs>
    <linearGradient id="a" x1="48" x2="48" y1="7.5" y2="88.5" gradientUnits="userSpaceOnUse">
      <stop stop-color="#ffdb6e" class="stopColorff1f00 svgShape"></stop>
      <stop offset="1" stop-color="#ffbc5e" class="stopColorff8a00 svgShape"></stop>
    </linearGradient>
  </defs>
</svg>