<svg xmlns="http://www.w3.org/2000/svg" viewBox="0 0 64 64" id="Leadership">
  <path d="M23.68,28.47a14.95,14.95,0,0,0,16.64,0,12,12,0,1,0,6.1-16.54,15,15,0,0,0-28.84,0,12,12,0,1,0,6.1,16.54ZM59,23a8,8,0,0,1-15.54,2.65A14.94,14.94,0,0,0,47,16.09,8,8,0,0,1,59,23ZM32,5A11,11,0,1,1,21,16,11,11,0,0,1,32,5ZM13,31a8,8,0,1,1,4-14.91,14.94,14.94,0,0,0,3.54,9.56A8,8,0,0,1,13,31Z" fill="#ffbc5e" class="color000000 svgShape"></path>
  <path d="M56,35H46a9.08,9.08,0,0,0-1,.07A8,8,0,0,0,38,31H26a8,8,0,0,0-7,4.07A9.08,9.08,0,0,0,18,35H8a8,8,0,0,0-8,8V55a4,4,0,0,0,4,4H60a4,4,0,0,0,4-4V43A8,8,0,0,0,56,35ZM22,39a4,4,0,0,1,4-4H38a4,4,0,0,1,4,4V55H22ZM4,55V43a4,4,0,0,1,4-4H18V55Zm56,0H46V39H56a4,4,0,0,1,4,4Z" fill="#ffbc5e" class="color000000 svgShape"></path>
  <circle cx="32" cy="41" r="2" fill="#ffbc5e" class="color000000 svgShape"></circle>
</svg>