<svg xmlns="http://www.w3.org/2000/svg" fill-rule="evenodd" clip-rule="evenodd" image-rendering="optimizeQuality" shape-rendering="geometricPrecision" text-rendering="geometricPrecision" viewBox="0 0 6.827 6.827" id="Programming">
  <path d="M1.79661 0.506524c-0.128299,0 -0.232669,0.104307 -0.232669,0.232642l0 3.07958c0,0.128185 0.10437,0.232642 0.232669,0.232642l3.23344 0c0.128291,0 0.232665,-0.104445 0.232665,-0.232638l3.93701e-006 -3.0796c0,-0.128327 -0.104378,-0.232626 -0.232669,-0.232626l-3.23344 0zm3.23344 3.70486l-3.23344 0c-0.216524,0 -0.392669,-0.17611 -0.392669,-0.392638l0 -3.0796c0,-0.216516 0.176146,-0.392626 0.392669,-0.392626l3.23344 0c0.216516,0 0.392665,0.176114 0.392665,0.392642l3.93701e-006 3.07958c0,0.216531 -0.176157,0.392642 -0.392669,0.392642z" fill="#ffbc5e" class="color000000 svgShape"></path>
  <path d="M5.34272 1.43471l-3.85879 0c-.0441811 0-.0799961-.0358268-.0799961-.0799921 0-.0441811.035811-.08.0799961-.08l3.85879-.00000787402c.0441772 0 .0799961.0358425.0799961.0800079.00000393701.0441654-.0358189.08-.0799961.0799921zM2.03065.825681c-.0357913 0-.0649291.0291772-.0649291.064874 0 .0358307.0291378.0649961.0649291.0649961.0357913-.000011811.0649173-.0291654.0649173-.0649961 0-.0357008-.029126-.0648622-.0649173-.064874zm0 .289858c-.124028 0-.224917-.100957-.224917-.224984.00000393701-.124031.10089-.224866.224917-.224866.124016-.00000787402.224906.100835.224906.224866 0 .124016-.10089.224996-.224906.224984zM2.56495.825681c-.0357913 0-.0649173.0291772-.0649173.064874 0 .0358307.029126.0649961.0649173.0649961.0357913-.000011811.0649173-.0291654.0649173-.0649961 0-.0357008-.029126-.0648622-.0649173-.064874zm0 .289858c-.124028 0-.224917-.100957-.224917-.224984 0-.124031.10089-.224866.224917-.224866.124028-.00000787402.224917.100835.224917.224866 0 .124016-.10089.224996-.224917.224984zM3.09927.825681c-.0357913 0-.0649173.0291772-.0649173.064874 0 .0358307.029126.0649961.0649173.0649961.0357913-.000011811.0649173-.0291654.0649173-.0649961 0-.0357008-.029126-.0648622-.0649173-.064874zm0 .289858c-.124012 0-.224917-.100957-.224917-.224984 0-.124031.100906-.224866.224917-.224866.124016-.00000787402.224917.100835.224917.224866 0 .124016-.100902.224996-.224917.224984z" fill="#ffbc5e" class="color000000 svgShape"></path>
  <path d="M5.89684 1.24832l.000137795 0-.000137795 0zm0 3.38597l-4.96704 0c-.0547677 0-.0993307-.0445709-.0993307-.0992913l0-3.34722c0-.054874.044563-.0993071.0993307-.0993071l.554126-.00000787402c.0441811 0 .0800039.0357047.0800039.0800079 0 .0441654-.0358228.0798622-.0800039.0798622l-.493457-.00000787402 0 3.22597 4.8457 0 0-3.22597-.493457 0c-.0441811 0-.0800039-.035685-.0800039-.0798543.00000393701-.0443189.0358189-.08.08-.08l.554126-.00000787402c.0547638 0 .0993307.0444528.0993307.099315l.00000393701 3.34722c0 .0547205-.0445709.099311-.0993346.0992992zM2.52323 6.02943c-.00698819 0-.0140866-.00096063-.0211417-.00276378-.042622-.0116732-.0677362-.0556969-.0560827-.0983346l.270417-.989445c.0116535-.0426417.0556654-.0677756.0982638-.0561102.0426102.0116535.0677205.0556929.0560827.0983346l-.270429.989429c-.00970866.035563-.0419449.0589016-.0771102.0588898zm1.78018 0c-.0351693 0-.0674055-.0233189-.0771142-.058874l-.270417-.989453c-.0116496-.0426417.0134606-.0866614.0560709-.0983268.0426378-.0116732.0866102.0134724.0982638.0561102l.270417.989437c.0116535.0426378-.0134606.0866732-.0560827.0983425-.00705512.00179528-.0141535.00277559-.0211378.00276378z" fill="#ffbc5e" class="color000000 svgShape"></path>
  <path d="M2.28591 6.32013l2.25484 0 0-.290705-2.25484 0 0 .290705zm2.33484.16l-2.41484 0c-.0441772 0-.0799843-.0358307-.0799843-.0799961l0-.450709c0-.0441535.0358031-.0799882.0799843-.0799882l2.41484-.000011811c.0441772 0 .0799803.0358465.0799803.0800118l.00000393701.450693c0 .0441575-.0358071.0800039-.0799843.08zM3.74784 5.53471l-.669028 0c-.0441811 0-.08-.0358228-.08-.0799921 0-.0441811.0358189-.08.08-.08l.669028-.00000787402c.0441811 0 .0799843.0358386.0799843.0800079 0 .0441654-.0358031.08-.0799843.0799921zM5.89926 5.03999l-4.97187 0c-.277098 0-.502528-.225409-.502528-.502496l0-3.35222c0-.134173.0526102-.260555.148157-.355835.0948819-.0945866.220295-.146665.353252-.146665.000448819 0 .00088189 0 .00133071 0l.556335 0c.0441811 0 .0800039.0358346.0800039.08 0 .0441535-.0358228.08-.0800039.08l-.556547 0c-.000291339 0-.000602362 0-.000893701 0-.0905236 0-.175811.0354173-.240488.1-.0652244.065-.101154.151252-.101154.2425l0 3.35222c0 .188752.153665.342504.342535.342504l4.97187-.00000393701c.188874 0 .342539-.153744.342539-.342496l0-3.35222c0-.091252-.0359291-.1775-.101154-.2425-.0646772-.0645945-.149972-.1-.240276-.1-.00030315 0-.000598425 0-.000905512 0l-.556744 0c-.0441811 0-.0800039-.0358346-.0800039-.08.00000393701-.0441732.0358189-.08.08-.08l.556543 0c.000444882 0 .000885827 0 .00133071 0 .132752 0 .258154.0520866.353043.146665.0955433.0952717.148165.221669.148165.355835l0 3.35222c0 .277079-.225429.502504-.502539.5025z" fill="#ffbc5e" class="color000000 svgShape"></path>
  <path d="M3.26356 3.30917c-.00684646 0-.0138189-.000834646-.020748-.00277953-.0426811-.0113937-.0680157-.0552756-.0565866-.0979173l.299626-1.11819c.0114331-.0427835.0552795-.0680551.0979724-.0566654.0426811.0115236.0680157.0554173.0565827.0980551l-.299622 1.11819c-.00958268.035685-.0419055.059311-.0772244.059311zM2.91584 3.25124c-.0157087 0-.0315551-.00457874-.0454449-.0141614l-.694071-.480012c-.0216102-.015-.0344843-.0395709-.0344843-.0658228 0-.0262559.012874-.0508346.0344843-.0658346l.694071-.48c.0363346-.0251378.0861654-.0161102.111303.0202756.025126.0363819.0160551.0861142-.0202913.111252l-.598941.414303.598945.414295c.0363425.0251417.0454134.074874.0202874.111264-.0155236.0224882-.0404843.0344449-.0658583.0344409zM3.91081 3.25124c-.025374 0-.0503346-.0119409-.0658622-.0344409-.0251378-.0363898-.0160551-.0861102.0202913-.111248l.598933-.414311-.598933-.414315c-.0363465-.0251378-.0454291-.0748465-.0202913-.11124.0251378-.0363976.0749724-.0454134.111291-.0202756l.694071.48c.0216102.015.0344843.0395827.0344843.0658346 0 .0262441-.012874.0508346-.0344843.0658346l-.694071.479988c-.013874.00959449-.0297362.0141772-.0454291.0141732z" fill="#ffbc5e" class="color000000 svgShape"></path>
  <rect width="6.827" height="6.827" fill="none"></rect>
</svg>